<?xml version="1.0" encoding="utf-8"?>
<!-- Generator: Adobe Illustrator 19.2.0, SVG Export Plug-In . SVG Version: 6.00 Build 0)  -->
<svg version="1.1" id="Layer_1" xmlns="http://www.w3.org/2000/svg" xmlns:xlink="http://www.w3.org/1999/xlink" x="0px" y="0px"
	 viewBox="0 0 256 256" style="enable-background:new 0 0 256 256;" xml:space="preserve">
<style type="text/css">
	.st0{display:none;fill:#FFFFFF;}
	.st1{fill:#FFFFFF;}
	.st2{fill:#FA5400;}
</style>
<rect class="st0" width="256" height="256"/>
<path class="st1" d="M205.5,256h-155C22.7,256,0,233.3,0,205.5v-155C0,22.7,22.7,0,50.5,0h155C233.3,0,256,22.7,256,50.5v155
	C256,233.3,233.3,256,205.5,256z"/>
<path class="st2" d="M36.4,151.3c-7-0.3-12.7-2.2-17.2-5.8c-0.9-0.7-2.9-2.7-3.6-3.6c-1.8-2.3-3.1-4.5-3.9-7
	c-2.5-7.6-1.2-17.6,3.7-28.5c4.2-9.4,10.8-18.6,22.2-31.5c1.7-1.9,6.7-7.4,6.7-7.4S44,68,43.7,68.6c-3,5-5.5,10.8-6.9,15.9
	c-2.2,8.2-2,15.1,0.8,20.6c1.9,3.7,5.1,7,8.8,8.8c6.4,3.1,15.7,3.4,27.2,0.8c0.8-0.2,39.8-10.5,86.6-23c47-12.5,85.3-22.7,85.3-22.7
	s-108.8,46.6-165.4,70.8c-9,3.8-11.3,4.8-15.5,6.3C53.8,149.8,44.2,151.7,36.4,151.3z"/>
<path class="st2" d="M218.6,109.6c7,0.3,12.7,2.2,17.2,5.8c0.9,0.7,2.9,2.7,3.6,3.6c1.8,2.3,3.1,4.5,3.9,7
	c2.5,7.6,1.2,17.6-3.7,28.5c-4.2,9.4-10.8,18.6-22.2,31.5c-1.7,1.9-6.7,7.4-6.7,7.4s0.3-0.5,0.6-1.1c3-5,5.5-10.8,6.9-15.9
	c2.2-8.2,2-15.1-0.8-20.6c-1.9-3.7-5.1-7-8.8-8.8c-6.4-3.1-15.7-3.4-27.2-0.8c-0.8,0.2-39.8,10.5-86.6,23
	c-47,12.5-85.3,22.7-85.3,22.7s108.8-46.6,165.4-70.8c9-3.8,11.3-4.8,15.5-6.3C201.2,111.1,210.8,109.2,218.6,109.6z"/>
</svg>
